HIERARCHY
ROOT Hips
{
    OFFSET 0.000000 0.000000 0.000000
    CHANNELS 6 Xposition Yposition Zposition Zrotation Xrotation Yrotation
    JOINT Spine
    {
        OFFSET -0.000000 14.517291 0.000000
        CHANNELS 3 Zrotation Xrotation Yrotation
        JOINT Spine1
        {
            OFFSET -0.000000 37.558300 0.000000
            CHANNELS 3 Zrotation Xrotation Yrotation
            JOINT Neck
            {
                OFFSET -0.000000 37.404057 3.400369
                CHANNELS 3 Zrotation Xrotation Yrotation
                JOINT Head
                {
                    OFFSET -0.000000 24.785618 -3.540803
                    CHANNELS 3 Zrotation Xrotation Yrotation
                    End Site
                    {
                        OFFSET -0.000000 35.408028 0.000000
                    }
                }
            }
            JOINT LeftShoulder
            {
                OFFSET 6.992933 33.973492 -0.192664
                CHANNELS 3 Zrotation Xrotation Yrotation
                JOINT LeftArm
                {
                    OFFSET 21.527611 0.000000 0.000000
                    CHANNELS 3 Zrotation Xrotation Yrotation
                    JOINT LeftForeArm
                    {
                        OFFSET 56.353916 0.000000 0.000000
                        CHANNELS 3 Zrotation Xrotation Yrotation
                        JOINT LeftHand
                        {
                            OFFSET 47.774071 0.000000 0.000000
                            CHANNELS 3 Zrotation Xrotation Yrotation
                            End Site
                            {
                                OFFSET 26.556021 0.000000 0.000000
                            }
                        }
                    }
                }
            }
            JOINT RightShoulder
            {
                OFFSET -7.065357 33.973492 -0.192664
                CHANNELS 3 Zrotation Xrotation Yrotation
                JOINT RightArm
                {
                    OFFSET -21.527611 0.000000 0.000000
                    CHANNELS 3 Zrotation Xrotation Yrotation
                    JOINT RightForeArm
                    {
                        OFFSET -56.353916 0.000000 0.000000
                        CHANNELS 3 Zrotation Xrotation Yrotation
                        JOINT RightHand
                        {
                            OFFSET -47.774071 0.000000 0.000000
                            CHANNELS 3 Zrotation Xrotation Yrotation
                            End Site
                            {
                                OFFSET -26.556021 0.000000 0.000000
                            }
                        }
                    }
                }
            }
        }
    }
    JOINT LeftUpLeg
    {
        OFFSET 17.704014 0.000000 0.000000
        CHANNELS 3 Zrotation Xrotation Yrotation
        JOINT LeftLeg
        {
            OFFSET -0.000000 -81.181816 0.000000
            CHANNELS 3 Zrotation Xrotation Yrotation
            JOINT LeftFoot
            {
                OFFSET -0.000000 -62.821102 0.000000
                CHANNELS 3 Zrotation Xrotation Yrotation
                JOINT LeftToeBase
                {
                    OFFSET -0.000000 -11.507608 26.556021
                    CHANNELS 3 Zrotation Xrotation Yrotation
                    End Site
                    {
                        OFFSET -0.000000 0.000000 7.081605
                    }
                }
            }
        }
    }
    JOINT RightUpLeg
    {
        OFFSET -17.704014 0.000000 0.000000
        CHANNELS 3 Zrotation Xrotation Yrotation
        JOINT RightLeg
        {
            OFFSET -0.000000 -81.181816 0.000000
            CHANNELS 3 Zrotation Xrotation Yrotation
            JOINT RightFoot
            {
                OFFSET -0.000000 -62.821102 0.000000
                CHANNELS 3 Zrotation Xrotation Yrotation
                JOINT RightToeBase
                {
                    OFFSET -0.000000 -11.507608 26.556021
                    CHANNELS 3 Zrotation Xrotation Yrotation
                    End Site
                    {
                        OFFSET -0.000000 0.000000 7.081605
                    }
                }
            }
        }
    }
}
MOTION
Frames:    9
Frame Time:    0.008333
-9.460604    151.292740    -11.481798    -0.658390    1.377938    27.949656    -0.909562    2.755115    12.383959    -6.714602    -1.395906    4.039347    2.930458    2.352483    -10.975820    12.442648    -2.995342    -9.726078    3.128469    2.727937    -6.535489    -43.380138    17.835814    -47.335213    -12.302769    -13.176635    -131.900040    3.089421    -38.439247    -6.313807    -10.300638    3.208935    3.899483    20.538378    17.622290    21.215969    -40.137409    -42.971825    -29.128057    -2.619196    -50.637531    13.808425    -1.391651    -35.907593    -31.014782    -10.815358    23.314871    -23.467840    -10.294756    3.859366    29.133234    0.000000    0.000000    0.000000    5.569785    11.149821    -17.746649    2.770445    24.005848    -1.305124    -3.073254    -30.557156    -6.293174    0.000000    0.000000    0.000000    
-9.468053    151.286407    -11.487039    -0.652254    1.379567    27.956739    -0.910289    2.745171    12.388086    -6.714840    -1.367583    4.042399    2.923875    2.359971    -10.986519    12.442852    -3.022053    -9.733349    3.135502    2.721160    -6.555133    -43.375237    17.842289    -47.346668    -12.297994    -13.204908    -131.907867    3.117643    -38.458233    -6.305993    -10.281546    3.218014    3.908499    20.504158    17.572468    21.298395    -40.135735    -42.976871    -29.109222    -2.546346    -50.633064    13.929585    -1.395027    -35.902100    -31.008768    -10.812489    23.296438    -23.436228    -10.286154    3.873546    29.085836    0.000000    0.000000    0.000000    5.564088    11.144918    -17.764196    2.765689    24.020569    -1.286426    -3.077104    -30.579744    -6.289110    0.000000    0.000000    0.000000    
-9.477056    151.280640    -11.496251    -0.651723    1.391892    27.964508    -0.913344    2.734186    12.390706    -6.719584    -1.353787    4.044038    2.937478    2.350593    -10.992517    12.420423    -3.027047    -9.744845    3.146858    2.719885    -6.561168    -43.376999    17.851002    -47.368137    -12.296770    -13.222403    -131.916397    3.088405    -38.473198    -6.313440    -10.250785    3.219129    3.924365    20.463732    17.574905    21.372078    -40.201923    -43.013969    -29.126759    -2.434212    -50.675041    14.051802    -1.399967    -35.912384    -30.993679    -10.807965    23.284161    -23.436682    -10.286518    3.886914    29.078749    0.000000    0.000000    0.000000    5.560503    11.128701    -17.767839    2.766308    24.028774    -1.276834    -3.082754    -30.598999    -6.302589    0.000000    0.000000    0.000000    
-9.487471    151.275620    -11.502874    -0.651921    1.394242    27.976601    -0.918123    2.730696    12.390162    -6.704434    -1.340264    4.044782    2.917108    2.365190    -11.003211    12.426799    -3.059556    -9.748504    3.139230    2.714426    -6.576443    -43.369267    17.855829    -47.370090    -12.289493    -13.241402    -131.927460    3.082885    -38.480515    -6.323705    -10.239835    3.209300    3.942807    20.428879    17.608545    21.448374    -40.296383    -43.062119    -29.161425    -2.282087    -50.733013    14.176997    -1.398953    -35.914772    -30.985949    -10.804133    23.269464    -23.433691    -10.309579    3.888433    29.061953    0.000000    0.000000    0.000000    5.569286    11.124976    -17.769196    2.767006    24.025137    -1.288601    -3.100286    -30.615416    -6.309977    0.000000    0.000000    0.000000    
-9.498588    151.269913    -11.511505    -0.650514    1.404363    27.991053    -0.921493    2.720963    12.389544    -6.703514    -1.324465    4.045520    2.907429    2.358748    -11.018600    12.419914    -3.060702    -9.764552    3.138441    2.712914    -6.585479    -43.357548    17.869249    -47.385342    -12.271691    -13.281184    -131.932983    3.050486    -38.480522    -6.331953    -10.212024    3.199621    3.968629    20.389591    17.635281    21.507561    -40.349979    -43.103638    -29.146471    -2.162742    -50.766792    14.250482    -1.404186    -35.924450    -30.979240    -10.806170    23.254492    -23.454311    -10.318178    3.896597    29.077410    0.000000    0.000000    0.000000    5.571815    11.109758    -17.763472    2.764435    24.032660    -1.284428    -3.124885    -30.624266    -6.335610    0.000000    0.000000    0.000000    
-9.511340    151.266724    -11.516428    -0.654208    1.415610    28.005951    -0.930249    2.707742    12.392607    -6.687222    -1.310283    4.047522    2.891243    2.369858    -11.044737    12.416430    -3.085727    -9.787458    3.133133    2.702423    -6.590974    -43.364300    17.866451    -47.389694    -12.273458    -13.261016    -131.933670    3.067659    -38.468594    -6.331870    -10.194590    3.184976    3.983233    20.366838    17.586809    21.582357    -40.383614    -43.119896    -29.126577    -2.002674    -50.771404    14.418503    -1.408494    -35.940338    -30.956066    -10.793426    23.255939    -23.484089    -10.319505    3.907134    29.061729    0.000000    0.000000    0.000000    5.581055    11.095181    -17.747478    2.769784    24.027437    -1.290154    -3.140108    -30.630653    -6.370370    0.000000    0.000000    0.000000    
-9.520800    151.264267    -11.521612    -0.655837    1.420676    28.031254    -0.932633    2.700943    12.390040    -6.675475    -1.294495    4.047722    2.877118    2.359467    -11.063505    12.403757    -3.082741    -9.808002    3.126786    2.698972    -6.603465    -43.371063    17.857542    -47.384327    -12.278965    -13.233790    -131.939926    3.038529    -38.459389    -6.352247    -10.184024    3.175612    4.006105    20.353603    17.550808    21.651678    -40.437233    -43.140583    -29.114542    -1.809992    -50.783218    14.635944    -1.414589    -35.948494    -30.969282    -10.800593    23.245598    -23.482496    -10.330951    3.914867    29.050394    0.000000    0.000000    0.000000    5.592019    11.083416    -17.754023    2.769058    24.034618    -1.296842    -3.138280    -30.638281    -6.386642    0.000000    0.000000    0.000000    
-9.534117    151.262650    -11.523165    -0.660605    1.426216    28.055563    -0.941608    2.696713    12.392522    -6.653010    -1.292019    4.048898    2.837584    2.365973    -11.098813    12.423709    -3.085541    -9.836046    3.116503    2.710087    -6.605308    -43.369076    17.859394    -47.400925    -12.281088    -13.228227    -131.937943    3.019390    -38.457035    -6.353342    -10.184663    3.177036    4.026800    20.342165    17.528719    21.715961    -40.476814    -43.170429    -29.091682    -1.545700    -50.791882    14.927238    -1.418284    -35.957607    -30.963083    -10.798346    23.239998    -23.496143    -10.346224    3.917428    29.056143    0.000000    0.000000    0.000000    5.609735    11.074765    -17.766336    2.760289    24.027964    -1.300561    -3.140133    -30.641068    -6.390433    0.000000    0.000000    0.000000    
-9.543929    151.261108    -11.525480    -0.660345    1.434156    28.084726    -0.947491    2.689654    12.397367    -6.646364    -1.275510    4.051521    2.798285    2.368316    -11.138728    12.466428    -3.095744    -9.864429    3.116269    2.703339    -6.615569    -43.378639    17.855843    -47.395256    -12.285933    -13.186119    -131.933212    3.021768    -38.429981    -6.364548    -10.175035    3.154320    4.032358    20.333252    17.507231    21.781378    -40.475670    -43.154411    -29.045612    -1.214496    -50.740845    15.233013    -1.432944    -35.963779    -30.967407    -10.791136    23.229923    -23.507393    -10.369194    3.914492    29.047331    0.000000    0.000000    0.000000    5.618761    11.059835    -17.790142    2.750487    24.037050    -1.279366    -3.148905    -30.637001    -6.427243    0.000000    0.000000    0.000000    
